<svg width="23" height="22" viewBox="0 0 23 22" fill="none" xmlns="http://www.w3.org/2000/svg">
<path d="M3.93359 7.81707L8.2768 2.75" stroke="white" stroke-width="2" stroke-linecap="round" stroke-linejoin="round"/>
<path d="M18.4116 7.81707L14.0684 2.75" stroke="white" stroke-width="2" stroke-linecap="round" stroke-linejoin="round"/>
<path fill-rule="evenodd" clip-rule="evenodd" d="M17.8662 19.3988H4.47755C3.8322 19.387 3.27961 18.9331 3.14274 18.3023L1.07924 9.61595C0.967328 9.19452 1.05348 8.74506 1.31329 8.39489C1.5731 8.04472 1.97828 7.83196 2.41405 7.81689H19.9297C20.3655 7.83196 20.7706 8.04472 21.0305 8.39489C21.2903 8.74506 21.3764 9.19452 21.2645 9.61595L19.201 18.3023C19.0641 18.9331 18.5115 19.387 17.8662 19.3988Z" stroke="white" stroke-width="2" stroke-linecap="round" stroke-linejoin="round"/>
<path d="M6.82812 10.7126V16.5036" stroke="white" stroke-width="2" stroke-linecap="round" stroke-linejoin="round"/>
<path d="M11.1719 10.7126V16.5036" stroke="white" stroke-width="2" stroke-linecap="round" stroke-linejoin="round"/>
<path d="M15.5156 10.7126V16.5036" stroke="white" stroke-width="2" stroke-linecap="round" stroke-linejoin="round"/>
</svg>
